<?xml version="1.0" encoding="utf-8"?>
<!-- Generator: Adobe Illustrator 23.0.1, SVG Export Plug-In . SVG Version: 6.00 Build 0)  -->
<!DOCTYPE svg PUBLIC "-//W3C//DTD SVG 1.1//EN" "http://www.w3.org/Graphics/SVG/1.1/DTD/svg11.dtd" [
	<!ENTITY ns_extend "http://ns.adobe.com/Extensibility/1.0/">
	<!ENTITY ns_ai "http://ns.adobe.com/AdobeIllustrator/10.0/">
	<!ENTITY ns_graphs "http://ns.adobe.com/Graphs/1.0/">
	<!ENTITY ns_vars "http://ns.adobe.com/Variables/1.0/">
	<!ENTITY ns_imrep "http://ns.adobe.com/ImageReplacement/1.0/">
	<!ENTITY ns_sfw "http://ns.adobe.com/SaveForWeb/1.0/">
	<!ENTITY ns_custom "http://ns.adobe.com/GenericCustomNamespace/1.0/">
	<!ENTITY ns_adobe_xpath "http://ns.adobe.com/XPath/1.0/">
]>
<svg version="1.1" id="Layer_1" xmlns:x="&ns_extend;" xmlns:i="&ns_ai;" xmlns:graph="&ns_graphs;"
	 xmlns="http://www.w3.org/2000/svg" xmlns:xlink="http://www.w3.org/1999/xlink" x="0px" y="0px" viewBox="0 0 122.7 78.6"
	 style="enable-background:new 0 0 122.7 78.6;" xml:space="preserve">
<style type="text/css">
	.Drop_x0020_Shadow{fill:none;}
	.Round_x0020_Corners_x0020_2_x0020_pt{fill:#FFFFFF;stroke:#000000;stroke-miterlimit:10;}
	.Live_x0020_Reflect_x0020_X{fill:none;}
	.Bevel_x0020_Soft{fill:url(#SVGID_1_);}
	.Dusk{fill:#FFFFFF;}
	.Foliage_GS{fill:#FFDD00;}
	.Pompadour_GS{fill-rule:evenodd;clip-rule:evenodd;fill:#44ADE2;}
</style>
<metadata>
	<sfw  xmlns="&ns_sfw;">
		<slices></slices>
		<sliceSourceBounds  bottomLeftOrigin="true" height="74.4" width="118.5" x="1.4" y="-86.9"></sliceSourceBounds>
		<optimizationSettings>
			<targetSettings  fileFormat="PNG24Format" targetSettingsID="0">
				<PNG24Format  filtered="false" interlaced="false" matteColor="#FFFFFF" noMatteColor="false" transparency="true">
					</PNG24Format>
			</targetSettings>
		</optimizationSettings>
	</sfw>
</metadata>
<linearGradient id="SVGID_1_" gradientUnits="userSpaceOnUse" x1="0" y1="-10.4395" x2="0.7071" y2="-9.7324">
	<stop  offset="0" style="stop-color:#DEDFE3"/>
	<stop  offset="0.1738" style="stop-color:#D8D9DD"/>
	<stop  offset="0.352" style="stop-color:#C9CACD"/>
	<stop  offset="0.5323" style="stop-color:#B4B5B8"/>
	<stop  offset="0.7139" style="stop-color:#989A9C"/>
	<stop  offset="0.8949" style="stop-color:#797C7E"/>
	<stop  offset="1" style="stop-color:#656B6C"/>
</linearGradient>
<g>
	<g>
		<path d="M35.1,34c0-1.4,0.3-2.8,0-4.1c-0.8-3.5-1.3-7.1-1.9-10.7c-0.2-1.2-1.3-1.7-2.2-1.7c-3.3-0.1-6.4-1.5-9.7-1.3
			c-1.5,0.1-2,0.7-2.2,1.8c-0.2,0.9-0.4,1.7-1.2,2.5c-0.3,0.3-1.3,1.4-0.2,2.3c0.3,0.3,0.1,0.9,0,0.9c-1-0.1-0.9,0.9-1.4,1.3
			C15,25.6,15,26.4,16,27.2c0.5,0.4,1.1,0.9,1.7,1.2c1.1,0.6,1.7,1.6,1.5,2.8c-0.2,1.7-0.1,3.5-1.2,5c-0.2,0.3-0.5,0.7-0.6,1
			c-0.1,1.4-0.8,2.2-2.3,2.2c0,0.3,0.1,0.4,0.1,0.4c1.5-0.1,2.7,1.1,3.9,1.4c1.9,0.6,3.9,1.1,5.8,1.8c1.4,0.5,1.8-0.1,1.5-1.5
			c1.1,0.6,1.7,4.2,1,5.1c-0.3,0.3-0.6,0.3-1,0.1c-1.6-0.6-3-0.1-4.4,0.5c-0.7,0.3-0.9,0.7-0.3,1.3c1.3,1.6,1.3,1.6-0.3,2.8
			c-0.7,0.5-0.6,0.5,0.2,1c2.7,1.7,4.5,1.6,6.4-1.2c1.1-1.6,2.2-3,3.7-4.1c1.7-1.3,2-3.3,2.3-5.2c0.3-2.2,1.1-4.3,1-6.5
			c0-0.3,0-0.8,0.6-0.7c0.6,0.2,0.9,0.7,1,1.4c0,0.2,0.1,0.8-0.5,0.6c-0.4-0.2-0.6-0.1-0.6,0.3c-0.1,1.8-1.2,3.6,0.1,5.4
			c0.3,0.4-0.1,0.6-0.2,0.8c-0.4,1-0.8,2-1,3.1c-0.2,1.5-1.2,2.7-2,3.9c-1.3,1.9-2.7,3.7-4.1,5.6c-0.6,0.7-1.4,1.2-2.2,1.5
			c-2.5,0.9-3.7,3-3.3,5.5c0,0.2,0.1,0.5,0.3,0.5c0.7,0.3,1.5,0.3,2.1,0.8c0.2-1.8,0.3-2.1,0.6-0.7c0.4-1.7,1.8-1,2.5,0.6
			c0.1-2.1,0.2-2.7,0.4-0.4c2.9-2.4,3.3-4.5,4.5-3.4c1.5-3.4,1.5-4.1,0.2-6.1c-0.1-0.1-0.1-0.4-0.1-0.6c2.8,1.3,3.5,2.3,2.1,5.4
			c-1.4,2-3.7,6.7-6.7,8.1c-1.6,0.4-3-3.2-4.3-0.5c-1.3-0.4-2.5,6.4-3.9,7.8c-1.2-0.1-1.4-6.8-2.2-0.4c-0.1,3.5-0.2-5-0.3-0.5
			c-1.8-2.4-3.6-3.2-5.4-4.8c-1.1-1-1.2-2.5-2-3.6c-0.2-0.3-0.3-0.8-0.6-1c-0.4-0.2-0.7-0.6-0.4-1c0.5-0.6,0.5,0.3,0.8,0.4
			c0.5,0.1,1,0.1,1.1-0.5c0.4-2.5,1.4-4.9,0.4-7.4c-0.3-0.8-0.6-1.6-1.3-2.2c-1.3-1.2-2.3-2.6-3.2-4.2c-1.1-1.8-1.5-3.5-1.7-5.5
			c-0.1-1.1-0.7-2.3-1.2-3.3c-0.8-1.6-1.6-3.2-2.1-4.9C1.9,33.8,1.4,32,3,30.6c0.2-0.2,0.3-0.5,0.3-0.8c-0.5-2.4-0.7-4.9-1.3-7.3
			c-0.4-1.5-0.8-3.1-0.5-4.6c0.2-1.3,0.3-2.5,0.4-3.8C2,11.8,2.8,9.9,4.9,8.8c1.3-0.6,1.9-2,2.9-2.9c0.6-0.5,1.2-1,1.9-1.1
			c2.5-0.4,4.6-1.8,7.1-2.3c3.2-0.7,6.4-0.4,9.3,0.9c0.9,0.4,1.6,1.1,2.5,1.4c0.3,0.1,1.1,0.4,0.9,1.3c-0.1,0.6,0.5,0.6,0.8,0.5
			c0.4-0.1,0.5-0.3,0.3-0.8c-0.4-0.8,0-0.9,0.7-0.6c0.7,0.3,1.4,0.6,2,1c0.5,0.3,0.6,0.8,0.1,1.2c-0.2,0.2-0.4,0.3-0.6,0.5
			c-0.4,0.3-0.8,0.9-0.5,1.3c0.2,0.3,0.8,0.2,1.2-0.2c0.6-0.5,1.2,0.4,1.9,0.4c1-0.1,0.3,0.9,0.4,1.3c0.3,0.9,0.1,1.8,1.6,1.4
			c0.6-0.1,1.2,0.6,1.3,1.2c0.8,2.7,1.6,5.4,1.5,8.2c0,1.9-0.7,3.9-1.2,5.8c-0.3,1-0.9,1.9-1.1,2.9C37.6,31.8,36.1,32.6,35.1,34z
			 M8.4,37.1c0.2,0.6,0.2,1.2,0.9,1.8c0.7,0.5,1.7,0.9,1.9,2.1c0.1,0.6,1.5,0.6,1.5,0.1c0-1.1,0.8-1.5,1.4-2.1
			c0.7-0.6,0.6-1.9-0.1-2.2c-1-0.4-2-0.9-3-1.2C9.3,35.2,8.4,35.8,8.4,37.1z M22.5,46c-1.3-0.5-2.6,0-3.8-0.1
			c-0.2,0-0.5,0.1-0.6,0.3c-0.1,0.2,0,0.4,0.2,0.5C19.3,47.3,21.6,46.9,22.5,46z M20.6,69.3c-0.2-0.8-0.2-2.5-0.8-1
			c-0.6,0-0.9,0.2-0.9,1.2c-0.1-0.8,0.2-0.1,0.7,0.6C20.1,67.5,20.6,66.7,20.6,69.3z"/>
		<path d="M30.2,32.4c-1.5-1.5-2.7,0.6-4.2,0.1c0.3,0.8,1.1,0.8,1.5,1.4c-3,1.1-5-0.2-5-3.3c0-0.3,0-0.6-0.3-0.8
			c-1.6-0.9-0.4-1.4,0.4-1.7c2-0.9,4-1.5,6.1-0.7c0.4,0.1,0.9,0.1,0.9,0.6c-0.1,0.5-0.7,0.5-1.1,0.7c-0.5,0.2-1.3-0.2-1.4,1.1
			c0,0.7,0.1,0.8,0.6,0.9C28.7,31,29.6,31.4,30.2,32.4z"/>
		<path d="M9,74.9c-0.1,0.9-0.6,1.6-1.2,1.5c-0.7-0.1-1.3-0.6-1.5-1.5c-0.2-1,0.6-1.1,1.2-1.2C8.5,73.6,8.4,74.7,9,74.9z"/>
		<path d="M38,35.5c-0.5-1.3,0.3-2.3-0.1-3.3c-0.1-0.2,0.1-0.5,0.4-0.5c0.1,0,0.3,0.3,0.3,0.4C38.5,33.2,38.7,34.4,38,35.5z"/>
	</g>
	<g>
		<g>
			<path d="M51.7,33.6L49.3,34c0.4-1.7,0.6-3.1,0.6-4.2c0-0.8-0.2-1.6-0.6-2.3c-0.4-0.7-0.9-1.1-1.6-1.3c-0.8,1.1-1.2,2.5-1.2,4.1
				c0,0.1,0,0.2,0.1,0.2c0,0,0.2,0.1,0.4,0.1c0.2,0,0.5,0.1,0.9,0.1c-0.7,0.7-1.1,1.1-1.3,1.3l-0.3,0c-0.7,0-1.1-0.4-1.1-1.1
				c0-0.6,0.1-1.2,0.4-2c0.3-0.7,0.6-1.5,1.1-2.3c0.5-0.8,1.1-1.5,1.8-2.1c0.4,0,0.7,0.1,1,0.2s0.6,0.2,0.9,0.4s0.6,0.4,0.8,0.6
				c0.7,0.7,1.1,1.6,1.2,2.8c0.5-0.8,1-1.5,1.5-2s0.9-0.9,1.4-1.2c0.4-0.3,0.9-0.5,1.4-0.6s1-0.2,1.5-0.3c0.2,0.5,0.4,1,0.5,1.5
				s0.3,1.2,0.3,1.8c0.5-0.6,1.2-1.1,2.1-1.6c0.9-0.5,1.9-0.8,2.8-1c0.9,1.8,1.3,3.5,1.3,5.1c0,0.8-0.1,1.6-0.3,2.4
				c-0.2,0.8-0.5,1.6-0.9,2.6c-1.8,1.2-3.4,1.8-4.9,1.8c-0.9,0-1.9-0.3-3-0.8l-0.2-1.1c0.9,0.4,1.9,0.5,3,0.5c1.4,0,3-0.3,4.5-0.8
				c-0.1-2.6-0.6-5.3-1.5-8.2c-0.9,0.5-1.6,1.3-2.2,2.4c-0.6,1.1-0.9,2.6-1,4.4c-0.4,0-1.2,0.2-2.6,0.4c0.1-1.3,0.2-2.4,0.2-3.6
				c0-1.6-0.2-3.1-0.5-4.3C54.2,27.4,52.8,29.9,51.7,33.6z"/>
			<path d="M66.4,28.2c0.5,0,1.4-0.2,2.5-0.5c-0.1,0.2-0.1,0.5-0.2,0.9c0,0.3-0.1,0.6-0.2,1c-0.1,0.4-0.1,0.7-0.1,1
				c0,0.3,0.1,0.6,0.2,0.9c0.1,0.3,0.3,0.7,0.5,1c0.4-0.3,0.7-0.6,0.9-0.9c0-0.1,0-0.4,0-0.8c0-1.3-0.1-2.2-0.2-2.8
				c0.2,0,0.3,0,0.5,0c0.6,0,1.2-0.1,2-0.2c0,0.7-0.1,1.6-0.1,2.6c0,0.6,0,1.6,0.1,3c-0.3,0-0.8,0.1-1.5,0.3l-0.9,0.2
				c0.1-0.4,0.1-0.8,0.1-1.2c-0.4,0.2-0.9,0.5-1.8,1.1c-0.6-0.2-1-0.3-1.2-0.4c-0.2-0.1-0.3-0.3-0.5-0.6c-0.2-0.3-0.2-0.8-0.2-1.3
				C66.2,30.4,66.3,29.3,66.4,28.2z"/>
			<path d="M73.5,25.4l2.3-0.7l-0.1,2.6V29l1.1-1.1H77c0.9,0.3,1.5,0.6,1.8,0.9c0.3,0.3,0.4,0.9,0.4,1.7c0,0.3,0,0.8-0.1,1.4
				c0,0.4-0.1,0.9-0.1,1.6c-0.7,0.6-1.4,1.1-2.2,1.6c0.2-1.6,0.3-2.7,0.3-3.1l-0.3-1.6c0-0.1-0.2-0.5-0.4-1.2
				c-0.3,0.4-0.5,0.7-0.7,0.8v1.7c0,0,0,0.2,0,0.5c0,0.3,0,0.5,0,0.7c0,0.1,0,0.4,0,0.8c-0.5,0-1.3,0.1-2.4,0.3
				c0.1-0.6,0.1-1.3,0.1-2.2C73.5,30.8,73.5,28.7,73.5,25.4z"/>
			<path d="M82.2,27.8c0.1,0,0.5,0.1,1.2,0.2c0.7,0.1,1.1,0.2,1.4,0.3c0.2,0.1,0.4,0.2,0.6,0.4s0.3,0.4,0.4,0.7
				c0.1,0.3,0.1,0.7,0.1,1.2l0,2c0,0.2,0,0.5,0.1,0.8c-0.4,0.1-1.2,0.3-2.3,0.6c0.1-0.6,0.1-1.5,0.1-2.6c-0.1,0.1-0.3,0.4-0.7,0.8
				s-0.9,1-1.6,1.7c-0.5-0.1-0.9-0.3-1.2-0.4c0-0.2-0.1-0.4-0.1-0.8c-0.1-0.6-0.1-1.1-0.1-1.5c0-0.7,0.1-1.2,0.4-1.7
				C80.8,29.1,81.3,28.5,82.2,27.8z M82.2,29.5l0.2,2.7c0.3-0.3,0.5-0.6,0.7-0.9s0.5-0.7,0.6-1C83.5,29.9,82.9,29.6,82.2,29.5z"/>
			<path d="M87.1,29.2v-0.8c0.6-0.1,1.3-0.3,2.2-0.6l0,1.1c0.5-0.5,0.8-0.8,1.1-1.1c1.2,0.2,1.9,0.6,2,1.1c0.3-0.4,0.6-0.7,1-1.1
				c0.6,0,1.1,0.1,1.5,0.3c0.4,0.2,0.7,0.4,0.8,0.7S96,29.5,96,30c0,0.4,0,0.9-0.1,1.4c0,0.4-0.1,0.7-0.1,0.8c0,0.1,0,0.3,0,0.7
				c-0.5,0.5-1.3,1-2.3,1.5c0.1-0.4,0.1-0.9,0.1-1.8l0-0.2c0-0.4,0-0.7,0-1c0-0.6-0.1-1.1-0.2-1.4c-0.1-0.3-0.3-0.6-0.6-0.9
				c-0.2,0.5-0.3,0.8-0.4,0.9c0,0.4,0,0.8,0,1.4c0,0.7,0,1.4-0.1,1.9c-1.1,0.2-1.8,0.3-2.1,0.5c0-0.3,0-0.6,0-0.8
				c0-2.1-0.2-3.3-0.7-3.8l-0.4,0.8l0.1,3.5c-1.3,0.1-2.1,0.2-2.5,0.3C87.1,32.5,87.1,30.9,87.1,29.2z"/>
			<path d="M97.2,29.2v-0.8c0.6-0.1,1.3-0.3,2.2-0.6l0,1.1c0.5-0.5,0.8-0.8,1.1-1.1c1.2,0.2,1.9,0.6,2,1.1c0.3-0.4,0.6-0.7,1-1.1
				c0.6,0,1.1,0.1,1.5,0.3c0.4,0.2,0.7,0.4,0.8,0.7s0.2,0.7,0.2,1.2c0,0.4,0,0.9-0.1,1.4c0,0.4-0.1,0.7-0.1,0.8c0,0.1,0,0.3,0,0.7
				c-0.5,0.5-1.3,1-2.3,1.5c0.1-0.4,0.1-0.9,0.1-1.8l0-0.2c0-0.4,0-0.7,0-1c0-0.6-0.1-1.1-0.2-1.4c-0.1-0.3-0.3-0.6-0.6-0.9
				c-0.2,0.5-0.3,0.8-0.4,0.9c0,0.4,0,0.8,0,1.4c0,0.7,0,1.4-0.1,1.9c-1.1,0.2-1.8,0.3-2.1,0.5c0-0.3,0-0.6,0-0.8
				c0-2.1-0.2-3.3-0.7-3.8l-0.4,0.8l0.1,3.5c-1.3,0.1-2.1,0.2-2.5,0.3C97.1,32.5,97.2,30.9,97.2,29.2z"/>
			<path d="M109.2,27.8c0.1,0,0.5,0.1,1.2,0.2c0.7,0.1,1.1,0.2,1.4,0.3c0.2,0.1,0.4,0.2,0.6,0.4s0.3,0.4,0.4,0.7
				c0.1,0.3,0.1,0.7,0.1,1.2l0,2c0,0.2,0,0.5,0.1,0.8c-0.4,0.1-1.2,0.3-2.3,0.6c0.1-0.6,0.1-1.5,0.1-2.6c-0.1,0.1-0.3,0.4-0.7,0.8
				s-0.9,1-1.6,1.7c-0.5-0.1-0.9-0.3-1.2-0.4c0-0.2-0.1-0.4-0.1-0.8c-0.1-0.6-0.1-1.1-0.1-1.5c0-0.7,0.1-1.2,0.4-1.7
				C107.7,29.1,108.3,28.5,109.2,27.8z M109.2,29.5l0.2,2.7c0.3-0.3,0.5-0.6,0.7-0.9s0.5-0.7,0.6-1
				C110.4,29.9,109.9,29.6,109.2,29.5z"/>
			<path d="M119.9,33.6l-2.4,0.4c0-0.1,0-0.3,0-0.5c0-0.7-0.1-1.5-0.2-2.2c-0.2,0.3-0.5,0.7-0.9,1.2c-0.5,0.6-0.9,1-1.1,1.3
				c-0.5-0.1-0.8-0.3-1.2-0.4c-0.1-0.7-0.2-1.5-0.2-2.3c0-0.5,0.1-1,0.2-1.3c0.2-0.4,0.4-0.7,0.8-1.1s0.8-0.7,1.2-1
				c0.3,0,0.7,0.1,1.3,0.3c0-1,0.1-1.9,0.1-2.7c1.3-0.2,2.1-0.4,2.4-0.5c-0.2,1.8-0.2,3.8-0.2,6c0,0.5,0,1,0.1,1.5
				C119.8,32.7,119.8,33.2,119.9,33.6z M116,29.2l0.1,2.9c0,0,0,0,0.1-0.1c0,0,0,0,0.1-0.1c0-0.1,0.1-0.1,0.1-0.2
				c0.1-0.1,0.1-0.2,0.2-0.2l1.1-1.9C117.1,29.4,116.6,29.3,116,29.2z"/>
		</g>
		<g>
			<path d="M51.9,43.6c0-0.1,0.1-0.2,0.2-0.3c0.1-0.2,0.3-0.5,0.3-0.6c1.5-0.5,3-0.7,4.3-0.7c0.4,0,0.8,0,1.2,0.1
				c0.4,0.1,0.7,0.2,0.9,0.5c0.2,0.2,0.4,0.5,0.5,0.9c0.1,0.4,0.2,0.9,0.3,1.5l0.2,1.2l0.5,3.2c0.2,1.3,0.4,2.3,0.6,3
				c-1.4,0.4-2.5,0.8-3.1,1.1c0-0.5-0.1-1.9-0.2-4.2c-0.9-0.1-1.4-0.1-1.7-0.1c-0.3,0-0.8,0-1.3,0.1c-0.5,0-1,0.1-1.5,0.1
				c-1.7,1.9-3.1,3.2-4.2,3.8c-1.1,0.6-2.1,0.9-3,0.9c-0.9,0-1.7-0.2-2.2-0.7c-0.6-0.5-0.9-0.9-0.9-1.4c0-0.6,0.3-1.2,0.9-1.9
				c0.6-0.7,1.4-1.3,2.4-1.8c1-0.5,2.2-0.8,3.6-0.8c0.3,0,0.6,0,0.9,0c0.3,0,0.6,0,1,0.1c0.4,0,0.8,0.1,1.1,0.1l1.4-2
				c0.3-0.4,0.8-1.3,1.6-2.7c-0.5,0-1.1,0.1-1.8,0.1C53.3,43.3,52.7,43.4,51.9,43.6z M46.2,49.6c-0.4,0.5-0.5,1-0.5,1.5
				c0,0.5,0.2,0.9,0.5,1.1s0.8,0.4,1.3,0.4c0.4,0,0.9,0,1.5-0.1c0,0,0.3-0.3,0.8-0.9c0.5-0.5,1.2-1.3,2.1-2.4
				C49.6,49.3,47.7,49.4,46.2,49.6z M54,48c0.4,0,0.8,0.1,1.5,0.2s1.3,0.3,2.1,0.4c-0.2-1.4-0.5-3-0.8-4.6
				C56.2,44.9,55.3,46.2,54,48z"/>
			<path d="M62.2,42.7l1.3-0.3l1-0.3l-0.3,5l-0.1,2c0.3,0.2,0.7,0.5,1.1,0.7v0c-0.5,0.5-1,1-1.4,1.5c-0.6-0.1-1.1-0.4-1.4-0.8
				s-0.5-1-0.5-1.7c0-0.3,0-0.7,0-1.4C62.1,46.9,62.1,45.3,62.2,42.7z"/>
			<path d="M65.7,48.1v-0.6l4.5-0.1v0.8L65.7,48.1z"/>
			<path d="M79.8,43.6c0-0.1,0.1-0.2,0.2-0.3c0.1-0.2,0.3-0.5,0.3-0.6c1.5-0.5,3-0.7,4.3-0.7c0.4,0,0.8,0,1.2,0.1
				c0.4,0.1,0.7,0.2,0.9,0.5c0.2,0.2,0.4,0.5,0.5,0.9c0.1,0.4,0.2,0.9,0.3,1.5l0.2,1.2l0.5,3.2c0.2,1.3,0.4,2.3,0.6,3
				c-1.4,0.4-2.5,0.8-3.1,1.1c0-0.5-0.1-1.9-0.2-4.2c-0.9-0.1-1.4-0.1-1.7-0.1c-0.3,0-0.8,0-1.3,0.1c-0.5,0-1,0.1-1.5,0.1
				c-1.7,1.9-3.1,3.2-4.2,3.8c-1.1,0.6-2.1,0.9-3,0.9c-0.9,0-1.7-0.2-2.2-0.7c-0.6-0.5-0.9-0.9-0.9-1.4c0-0.6,0.3-1.2,0.9-1.9
				c0.6-0.7,1.4-1.3,2.4-1.8c1-0.5,2.2-0.8,3.6-0.8c0.3,0,0.6,0,0.9,0c0.3,0,0.6,0,1,0.1c0.4,0,0.8,0.1,1.1,0.1l1.4-2
				c0.3-0.4,0.8-1.3,1.6-2.7c-0.5,0-1.1,0.1-1.8,0.1C81.2,43.3,80.5,43.4,79.8,43.6z M74.1,49.6c-0.4,0.5-0.5,1-0.5,1.5
				c0,0.5,0.2,0.9,0.5,1.1s0.8,0.4,1.3,0.4c0.4,0,0.9,0,1.5-0.1c0,0,0.3-0.3,0.8-0.9c0.5-0.5,1.2-1.3,2.1-2.4
				C77.5,49.3,75.6,49.4,74.1,49.6z M81.9,48c0.4,0,0.8,0.1,1.5,0.2s1.3,0.3,2.1,0.4c-0.2-1.4-0.5-3-0.8-4.6
				C84.1,44.9,83.2,46.2,81.9,48z"/>
			<path d="M89.7,46.5v-0.8c0.6-0.1,1.3-0.3,2.2-0.6l0,1.1c0.5-0.5,0.8-0.8,1.1-1.1c1.2,0.2,1.9,0.6,2,1.1c0.3-0.4,0.6-0.7,1-1.1
				c0.6,0,1.1,0.1,1.5,0.3c0.4,0.2,0.7,0.4,0.8,0.7s0.2,0.7,0.2,1.2c0,0.4,0,0.9-0.1,1.4c0,0.4-0.1,0.7-0.1,0.8c0,0.1,0,0.3,0,0.7
				c-0.5,0.5-1.3,1-2.3,1.5c0.1-0.4,0.1-0.9,0.1-1.8l0-0.2c0-0.4,0-0.7,0-1c0-0.6-0.1-1.1-0.2-1.4c-0.1-0.3-0.3-0.6-0.6-0.9
				c-0.2,0.5-0.3,0.8-0.4,0.9c0,0.4,0,0.8,0,1.4c0,0.7,0,1.4-0.1,1.9c-1.1,0.2-1.8,0.3-2.1,0.5c0-0.3,0-0.6,0-0.8
				c0-2.1-0.2-3.3-0.7-3.8l-0.4,0.8l0.1,3.5c-1.3,0.1-2.1,0.2-2.5,0.3C89.6,49.8,89.7,48.2,89.7,46.5z"/>
			<path d="M99.3,47.1l0.2-0.9c0.9-0.2,2-0.5,3.2-1.1v1.2l0,0.5c0,0.1,0,0.1,0,0.2c0,0.2,0,0.4,0,0.6c0,0.1,0,0.2,0,0.3l0,1.2
				c0,0.3,0,0.8,0.1,1.8c-0.9,0.2-1.8,0.3-2.4,0.4c0.1-0.6,0.1-1.4,0.1-2.6l0-1.7c-0.2,0.1-0.4,0.1-0.6,0.1
				C99.6,47.1,99.5,47.1,99.3,47.1z M101.3,42c0.3,0,0.6,0.1,0.9,0.4c0.2,0.2,0.4,0.5,0.4,0.9c0,0.3-0.1,0.6-0.4,0.9
				c-0.3,0.2-0.5,0.4-0.9,0.4s-0.6-0.1-0.9-0.4c-0.2-0.2-0.4-0.5-0.4-0.9s0.1-0.6,0.4-0.9C100.7,42.1,101,42,101.3,42z"/>
			<path d="M105.7,45.3l0.7-0.2V46c0.1-0.1,0.4-0.2,0.7-0.4c0.1-0.1,0.2-0.1,0.3-0.2l0.6-0.3c0.4,0.1,0.7,0.1,1,0.2
				c0.2,0.1,0.4,0.2,0.5,0.4c0.1,0.2,0.2,0.3,0.3,0.5c0,0.2,0.1,0.4,0.1,0.8c0,0.4,0,0.9-0.1,1.5c-0.1,0.6-0.1,1.2-0.1,1.6l-1.3,0.8
				l-0.2,0.1c-0.4,0.3-0.7,0.4-0.9,0.5c0.3-1.3,0.4-2.3,0.4-3c0-0.9-0.2-1.6-0.6-2.3c0,0-0.1,0.1-0.2,0.2l-0.1,0.1l-0.3,0.3l0,3.9
				c-0.7,0-1.5,0.1-2.3,0.3c0-0.2,0-0.4,0-0.5c0-0.3,0-0.5,0-0.5v-0.2c0-0.2,0-0.3,0-0.4v-1.6c0-0.8,0-1.5,0-2.2
				c0.1,0,0.1,0,0.2-0.1s0.2-0.1,0.3-0.1c0.1,0,0.2-0.1,0.3-0.1L105.7,45.3z"/>
		</g>
	</g>
</g>
</svg>
