<svg width="18" height="22" viewBox="0 0 18 22" fill="none" xmlns="http://www.w3.org/2000/svg">
    <path d="M17.784 20.234c-.315-4.809-.581-9.62-.8-14.434-.046-1.012-.404-1.447-1.374-1.32-1.068.14-1.525-.296-1.903-1.375a4.55 4.55 0 0 0-1.673-2.28A4.416 4.416 0 0 0 9.36.001a4.26 4.26 0 0 0-2.618.622A4.382 4.382 0 0 0 4.991 2.7c-.515 1.328-1.097 2-2.542 1.801-.872-.12-.957.567-.993 1.257-.258 4.883-.502 9.767-.82 14.646-.082 1.263.39 1.592 1.544 1.558 2.299-.067 4.6-.02 6.901-.02 2.37 0 4.743-.064 7.11.025 1.325.05 1.676-.457 1.593-1.734zm-4.04-11.99c.217.058.38.33.51.453-.041.468-.281.62-.561.629a.47.47 0 0 1-.384-.113.487.487 0 0 1-.166-.371c-.007-.397.171-.71.6-.597zM6.933 1.716a3.833 3.833 0 0 1 4.513-.04c.44.313.813.714 1.094 1.18.768 1.223.404 1.648-.892 1.633-.83-.01-1.662-.002-2.493 0-.484.03-.97.027-1.453-.013-.698-.104-1.725.452-2.014-.516-.294-.983.537-1.708 1.245-2.244zM4.986 8.2c.119.136.39.307.437.527.092.434-.218.607-.609.59a.466.466 0 0 1-.358-.175.485.485 0 0 1-.1-.392c.011-.296.183-.51.63-.55zm10.316 12.66c-2.018-.065-4.04-.019-6.06-.019-2.09 0-4.182-.068-6.268.026-1.267.057-1.268-.559-1.213-1.546.228-4.102.373-8.209.574-12.312.028-.581-.223-1.373.68-1.55.395-.078.942-.195 1.161.209a1.54 1.54 0 0 1-.243 1.928c-.92.96-.905 1.884.259 2.623.304.186.667.245 1.013.163.346-.082.647-.297.84-.6a1.308 1.308 0 0 0 .397-.965 1.328 1.328 0 0 0-.424-.953c-.576-.612-1.033-1.3-.6-2.068.406-.722 1.267-.346 1.926-.369 1.391-.048 2.786-.032 4.179-.01 1.763.028 2.206.718 1.204 2.103-.693.958-.952 1.727.003 2.555a1.308 1.308 0 0 0 .967.358 1.29 1.29 0 0 0 .923-.463c.181-.143.327-.328.426-.539a1.513 1.513 0 0 0-.035-1.345 1.479 1.479 0 0 0-.452-.516 1.436 1.436 0 0 1-.276-1.91c.247-.383.777-.285 1.173-.2.91.197.597.996.633 1.567.26 4.098.449 8.202.752 12.296.096 1.297-.41 1.572-1.539 1.537z" fill="#000"/>
</svg>
