<svg width="493" height="37" viewBox="0 0 493 37" fill="none" xmlns="http://www.w3.org/2000/svg">
    <path d="M18.394 23.866V.494h-3.23v9.989H3.23V.494H0v23.372h3.23V13.482h11.934v10.384h3.23zM46.785 23.866h3.494L40.984.494h-3.725l-9.296 23.372h3.461l2.472-6.527h10.351l2.538 6.527zM39.04 3.856l4.054 10.483H35.05l3.989-10.482zM63.144 23.866V.494h-3.296v23.372h3.296zM87.448 23.866h3.758l-5.571-9.79c3.527-.66 5.67-3.264 5.67-6.626 0-3.857-2.737-6.956-7.154-6.956H75.35v23.372h3.263v-9.56h3.495l5.34 9.56zm-8.835-12.46v-8.01h4.945c2.637 0 4.417 1.582 4.417 4.054 0 2.406-1.78 3.956-4.417 3.956h-4.945zM184.335 5.802C183.807 3.263 181.698 0 176.424 0c-4.319 0-7.714 3.296-7.714 6.955 0 3.495 2.373 5.67 5.703 6.395l3.329.726c2.341.494 3.494 1.944 3.494 3.626 0 2.043-1.582 3.725-4.812 3.725-3.528 0-5.374-2.407-5.604-5.01l-3.099.988c.429 3.33 3.099 6.955 8.736 6.955 4.977 0 8.076-3.296 8.076-6.922 0-3.263-2.176-5.703-6.066-6.56l-3.494-.758c-1.978-.429-3-1.714-3-3.395 0-2.176 1.879-3.89 4.516-3.89 3.264 0 4.681 2.307 4.945 3.989l2.901-1.022zM211.263 23.866h3.494L205.461.494h-3.725l-9.296 23.372h3.462l2.472-6.527h10.351l2.538 6.527zm-7.747-20.01 4.055 10.483h-8.043l3.988-10.482zM249.576 23.866V.494h-4.318l-8.307 19.02L228.71.495h-4.385v23.372h3.198V5.67l7.911 18.196h2.967l7.977-18.196v18.196h3.198zM301.537 23.866V.494h-4.319l-8.306 19.02-8.241-19.02h-4.385v23.372h3.198V5.67l7.911 18.196h2.967l7.977-18.196v18.196h3.198zM116.132 7.836v16.36h5.723c3 0 5.053-1.87 5.053-4.454 0-1.823-1.084-3.484-2.953-3.946 1.43-.53 2.446-1.776 2.446-3.53 0-2.584-1.823-4.43-4.938-4.43h-5.331zm2.262 7.153V9.82h2.722c1.87 0 3 1.015 3 2.561 0 1.523-1.084 2.608-2.907 2.608h-2.815zm0 7.222v-5.284h3.23c1.985 0 2.977 1.108 2.977 2.677 0 1.592-1.246 2.607-3.069 2.607h-3.138zM138.208 17.204v6.992h2.261v-6.992l5.769-9.368h-2.585l-4.246 7.291-4.245-7.291h-2.723l5.769 9.368zM319.682 17.29c3.761 0 6.346-2.193 7.222-5.261l-2.007-.739c-.669 2.238-2.423 3.923-5.215 3.923-2.977 0-5.815-2.192-5.815-6.461s2.838-6.438 5.815-6.438c2.677 0 4.477 1.384 5.1 3.853l2.099-.738c-.83-3.161-3.461-5.192-7.199-5.192-4.061 0-8.122 3.046-8.122 8.515 0 5.469 3.899 8.537 8.122 8.537zM353.342 23.866h4.087l-9.856-12.955L357.297.494h-4.252l-10.944 12.032V.494h-3.231v23.372h3.231v-7.054l3.329-3.56 7.912 10.614zM386.371 23.866V.494h-3.231v17.933L371.471.494h-4.319v23.372h3.231V4.813l12.625 19.053h3.363zM401.854 23.866V.494h-3.297v23.372h3.297zM434.299 23.866V12.427h-11.175v2.901h8.11c-.132 2.407-2.011 6.099-7.22 6.099-4.186 0-8.142-3.066-8.142-9.263 0-6.198 4.088-9.197 8.274-9.197 3.626 0 6.362 1.978 7.417 5.34l2.934-1.253C433.145 2.834 429.223 0 424.146 0c-5.768 0-11.57 4.252-11.57 12.164 0 7.911 5.472 12.196 11.34 12.196 3.922 0 6.46-1.944 7.482-3.79l.297 3.296h2.604zM463.922 23.866V.494h-3.23v9.989h-11.933V.494h-3.231v23.372h3.231V13.482h11.933v10.384h3.23zM492.347 3.494v-3h-18.856v3h7.813v20.372h3.23V3.494h7.813zM168.117 33.755h323.707v2.637H168.117v-2.637z" fill="#000"/>
</svg>
