<svg width="65" height="65" viewBox="0 0 65 65" fill="none" xmlns="http://www.w3.org/2000/svg">
    <g clip-path="url(#t49fxof5ra)">
        <path d="M37.448 35.5v-5.4c0-.6-.5-1-1-1h-.1v-7.6c0-1.9-2.1-4-3.6-5-.9-.5-1.6-.7-2.1-.4-1.6.8-2.4 3.4-2.4 5.3v7.7h-.1c-.6 0-1 .5-1 1v5.4c-.3.2-.5.5-.5.8V47c0 .6.5 1 1 1h9.3c.6 0 1-.5 1-1V36.4c0-.4-.2-.7-.5-.9zm-2-4.3v4.2h-6.4v-4.2h6.4zm.4 14.8h-7.3v-8.6h7.3V46z" fill="#000"/>
        <path d="M35.948 37.4h-7.3V46h7.3v-8.6zm-1.9-14.5c-1.1-.1-2-.5-2.6-1.2-1.3-1.5-1.2-4-1.2-4.1 0-.4.4-.7.8-.6.4 0 .6.4.6.7 0 0-.1 2 .8 3.1.4.4.9.7 1.6.7.4 0 .7.3.7.7 0 .4-.3.7-.7.7zm1.4 8.3h-6.4v4.2h6.3l.1-4.2z" fill="#fff"/>
    </g>
    <circle cx="32.34" cy="32.34" r="31.84" stroke="#000"/>
    <defs>
        <clipPath id="t49fxof5ra">
            <path fill="#fff" transform="translate(16.248 16)" d="M0 0h32v32H0z"/>
        </clipPath>
    </defs>
</svg>
