<svg width="17" height="15" viewBox="0 0 17 15" fill="none" xmlns="http://www.w3.org/2000/svg">
    <path d="M4.524 0a4.45 4.45 0 0 0-3.207 1.354 4.696 4.696 0 0 0 0 6.522L8.023 14.8a.66.66 0 0 0 .947 0l6.712-6.917a4.694 4.694 0 0 0 0-6.522 4.466 4.466 0 0 0-6.413 0l-.77.784-.768-.79A4.45 4.45 0 0 0 4.524 0zm0 1.26c.812 0 1.63.33 2.267.986l1.239 1.28a.659.659 0 0 0 .946 0l1.232-1.274c1.273-1.311 3.255-1.311 4.528 0a3.427 3.427 0 0 1 0 4.746c-2.079 2.142-4.158 4.28-6.236 6.422L2.263 6.992a3.428 3.428 0 0 1 0-4.746c.637-.656 1.448-.986 2.26-.986z" fill="#000"/>
</svg>
