<svg width="398" height="30" viewBox="0 0 398 30" fill="none" xmlns="http://www.w3.org/2000/svg">
    <path d="M14.854 19.75V.879h-2.609v8.065H2.609V.878H0V19.75h2.609v-8.385h9.636v8.385h2.609zM37.78 19.75h2.822L33.096.879h-3.008L22.58 19.75h2.795l1.996-5.27h8.359l2.05 5.27zM31.526 3.594l3.274 8.465h-6.495l3.221-8.465zM50.991 19.75V.879H48.33V19.75h2.662zM70.617 19.75h3.035l-4.5-7.905c2.85-.533 4.58-2.636 4.58-5.35 0-3.115-2.21-5.617-5.777-5.617h-7.107V19.75h2.635v-7.72h2.822l4.312 7.72zM63.483 9.69V3.22h3.993c2.13 0 3.567 1.278 3.567 3.274 0 1.944-1.438 3.195-3.567 3.195h-3.993zM148.857 5.163c-.426-2.05-2.13-4.685-6.389-4.685-3.487 0-6.229 2.662-6.229 5.617 0 2.822 1.917 4.579 4.605 5.164l2.689.586c1.89.4 2.821 1.57 2.821 2.928 0 1.65-1.277 3.008-3.886 3.008-2.848 0-4.339-1.943-4.525-4.046l-2.503.798c.347 2.689 2.503 5.617 7.055 5.617 4.019 0 6.521-2.662 6.521-5.59 0-2.635-1.756-4.605-4.898-5.297l-2.821-.613c-1.597-.346-2.423-1.384-2.423-2.741 0-1.757 1.518-3.141 3.647-3.141 2.636 0 3.78 1.863 3.993 3.22l2.343-.825zM170.602 19.75h2.822L165.917.879h-3.008l-7.507 18.873h2.795l1.997-5.27h8.358l2.05 5.27zm-6.256-16.157 3.275 8.465h-6.496l3.221-8.465zM201.541 19.75V.879h-3.487l-6.708 15.36-6.655-15.36h-3.541V19.75h2.583V5.057l6.388 14.694h2.396l6.442-14.694V19.75h2.582zM243.501 19.75V.879h-3.487l-6.708 15.36-6.655-15.36h-3.54V19.75h2.582V5.057l6.388 14.694h2.396l6.442-14.694V19.75h2.582zM93.78 6.806v13.211h4.622c2.422 0 4.081-1.51 4.081-3.596 0-1.472-.876-2.814-2.385-3.187 1.155-.428 1.975-1.434 1.975-2.85 0-2.088-1.472-3.578-3.988-3.578h-4.304zm1.827 5.776V8.408h2.199c1.509 0 2.422.82 2.422 2.069 0 1.23-.876 2.105-2.348 2.105h-2.273zm0 5.833v-4.268h2.609c1.602 0 2.403.895 2.403 2.162 0 1.286-1.006 2.106-2.478 2.106h-2.534zM111.607 14.371v5.646h1.826v-5.646l4.659-7.565h-2.087l-3.429 5.888-3.428-5.888h-2.199l4.658 7.565zM258.154 14.44c3.037 0 5.124-1.77 5.832-4.248l-1.621-.597c-.54 1.808-1.956 3.168-4.211 3.168-2.404 0-4.696-1.77-4.696-5.217 0-3.448 2.292-5.2 4.696-5.2 2.162 0 3.615 1.119 4.118 3.113l1.696-.597C263.297 2.31 261.173.67 258.154.67c-3.279 0-6.559 2.46-6.559 6.876s3.149 6.894 6.559 6.894zM285.335 19.75h3.301l-7.959-10.46L288.53.877h-3.434l-8.838 9.716V.878h-2.609V19.75h2.609v-5.697l2.689-2.875 6.388 8.572zM312.007 19.75V.879h-2.608v14.48L299.975.879h-3.487V19.75h2.609V4.365l10.195 15.386h2.715zM324.51 19.75V.879h-2.661V19.75h2.661zM350.711 19.75v-9.236h-9.024v2.342h6.549c-.107 1.944-1.624 4.925-5.83 4.925-3.381 0-6.575-2.476-6.575-7.48 0-5.005 3.301-7.427 6.682-7.427 2.928 0 5.137 1.597 5.989 4.312l2.369-1.011c-1.091-3.407-4.259-5.697-8.358-5.697-4.659 0-9.344 3.434-9.344 9.823s4.419 9.85 9.157 9.85c3.168 0 5.218-1.571 6.043-3.062l.239 2.662h2.103zM374.633 19.75V.879h-2.609v8.065h-9.636V.878h-2.609V19.75h2.609v-8.385h9.636v8.385h2.609zM397.587 3.3V.878H382.36V3.3h6.309v16.45h2.609V3.3h6.309zM135.76 27.737h261.404v2.13H135.76v-2.13z" fill="#000"/>
</svg>
