<svg width="159" height="18" viewBox="0 0 159 18" fill="none" xmlns="http://www.w3.org/2000/svg">
    <path d="M-72.034 11.421V.028h-1.574v4.87h-5.817V.027H-81v11.393h1.575V6.36h5.817v5.062h1.574zM-58.194 11.421h1.703L-61.022.028h-1.816l-4.531 11.393h1.687l1.205-3.182h5.046l1.237 3.182zm-3.776-9.754 1.976 5.11h-3.92l1.944-5.11zM-50.22 11.421V.028h-1.607v11.393h1.607zM-38.373 11.421h1.832l-2.715-4.772c1.719-.322 2.763-1.591 2.763-3.23 0-1.88-1.333-3.39-3.486-3.39h-4.29V11.42h1.59v-4.66h1.703l2.603 4.66zm-4.306-6.074V1.442h2.41c1.286 0 2.154.772 2.154 1.977 0 1.173-.868 1.928-2.154 1.928h-2.41zM8.856 2.615C8.6 1.378 7.571-.213 5-.213c-2.105 0-3.76 1.607-3.76 3.39 0 1.704 1.157 2.765 2.78 3.118l1.622.354c1.141.24 1.704.948 1.704 1.767 0 .997-.772 1.816-2.346 1.816-1.72 0-2.62-1.173-2.732-2.442l-1.51.482c.208 1.623 1.51 3.39 4.258 3.39 2.426 0 3.937-1.607 3.937-3.374 0-1.591-1.06-2.78-2.957-3.198l-1.703-.37c-.964-.208-1.463-.835-1.463-1.655 0-1.06.916-1.896 2.202-1.896 1.59 0 2.282 1.125 2.41 1.945l1.414-.499zM21.983 11.421h1.703L19.154.028H17.34l-4.532 11.393h1.688L15.7 8.24h5.045l1.238 3.182zm-3.777-9.754 1.977 5.11h-3.92l1.943-5.11zM40.659 11.421V.028h-2.105L34.504 9.3 30.487.028H28.35v11.393h1.559v-8.87l3.856 8.87h1.446l3.889-8.87v8.87h1.559zM65.988 11.421V.028h-2.105L59.833 9.3 55.816.028H53.68v11.393h1.559v-8.87l3.856 8.87h1.446l3.889-8.87v8.87h1.559zM-24.39 3.607v7.975h2.79c1.462 0 2.463-.911 2.463-2.171 0-.889-.529-1.699-1.44-1.924.698-.258 1.192-.866 1.192-1.72 0-1.26-.888-2.16-2.407-2.16h-2.598zm1.102 3.487v-2.52h1.328c.91 0 1.462.495 1.462 1.249 0 .742-.529 1.27-1.417 1.27h-1.373zm0 3.52V8.04h1.575c.967 0 1.451.54 1.451 1.304 0 .777-.607 1.271-1.496 1.271h-1.53zM-13.63 8.174v3.408h1.103V8.174l2.812-4.567h-1.26l-2.07 3.554-2.069-3.554h-1.327l2.812 4.567zM74.833 8.215c1.833 0 3.093-1.068 3.52-2.564l-.978-.36c-.326 1.09-1.181 1.912-2.542 1.912-1.451 0-2.835-1.069-2.835-3.15 0-2.08 1.384-3.138 2.835-3.138 1.305 0 2.182.675 2.486 1.879l1.023-.36c-.405-1.541-1.687-2.531-3.51-2.531-1.979 0-3.959 1.485-3.959 4.15 0 2.666 1.901 4.162 3.96 4.162zM91.24 11.421h1.993l-4.805-6.315 4.74-5.078h-2.072L85.76 5.893V.028h-1.575v11.393h1.575V7.982l1.623-1.735 3.856 5.174zM107.341 11.421V.028h-1.575V8.77L100.078.028h-2.105v11.393h1.575V2.133l6.154 9.288h1.639zM114.888 11.421V.028h-1.607v11.393h1.607zM130.704 11.421V5.845h-5.447V7.26h3.953c-.065 1.173-.98 2.973-3.519 2.973-2.041 0-3.969-1.494-3.969-4.515s1.992-4.483 4.033-4.483c1.768 0 3.101.964 3.615 2.603l1.431-.61c-.659-2.058-2.571-3.44-5.046-3.44-2.812 0-5.64 2.073-5.64 5.93 0 3.856 2.667 5.945 5.528 5.945 1.912 0 3.149-.948 3.647-1.848l.145 1.607h1.269zM145.144 11.421V.028h-1.574v4.87h-5.817V.027h-1.575v11.393h1.575V6.36h5.817v5.062h1.574zM159 1.49V.029h-9.191v1.463h3.808v9.93h1.575v-9.93H159zM.95 16.242h157.795v1.285H.95v-1.285z" fill="#000"/>
</svg>
