<svg width="18" height="22" viewBox="0 0 18 22" fill="none" xmlns="http://www.w3.org/2000/svg">
    <path d="M17.354 22c-.545-2.258-1.059-4.388-2.764-5.902-4.654-4.134-11.395-1.83-12.881 4.396-.117.49.175 1.424-.624 1.306-1.03-.152-.333-1.07-.263-1.558a8.877 8.877 0 0 1 2.974-5.202 8.584 8.584 0 0 1 5.553-2.056 8.771 8.771 0 0 1 5.62 2.176 9.07 9.07 0 0 1 2.964 5.328 1.2 1.2 0 0 1 .006.873c-.108.282-.317.51-.585.639zM9.362.76a4.866 4.866 0 0 0-3.36 1.467A5.047 5.047 0 0 0 4.57 5.652a4.794 4.794 0 0 0 .327 1.868c.232.593.58 1.132 1.023 1.585.443.452.971.808 1.553 1.046a4.553 4.553 0 0 0 1.832.338 4.691 4.691 0 0 0 1.833-.337 4.76 4.76 0 0 0 1.567-1.026c.45-.444.811-.974 1.06-1.56.25-.585.384-1.216.394-1.854a5.213 5.213 0 0 0-1.457-3.422A5.03 5.03 0 0 0 9.362.76zM9.27 9.564A3.838 3.838 0 0 1 6.57 8.372a3.982 3.982 0 0 1-1.097-2.78c.035-1 .449-1.948 1.154-2.645a3.772 3.772 0 0 1 2.63-1.094 3.53 3.53 0 0 1 1.484.224c.473.18.904.46 1.264.822.36.362.64.797.823 1.276.184.48.266.994.24 1.508a3.785 3.785 0 0 1-.243 1.509 3.73 3.73 0 0 1-.819 1.282c-.357.365-.785.65-1.256.838a3.593 3.593 0 0 1-1.481.252z" fill="#000"/>
</svg>
