<svg width="20" height="18" viewBox="0 0 20 18" fill="none" xmlns="http://www.w3.org/2000/svg">
    <path d="M18.653 17.953c-1.34-1.355-2.682-2.706-4.015-4.068a.53.53 0 0 1-.198-.357.54.54 0 0 1 .11-.395c.24-.312.483-.182.697.036 1.35 1.374 2.697 2.75 4.042 4.128l-.636.656zM7.507.022a7.648 7.648 0 0 0-5.304 2.356 7.933 7.933 0 0 0-2.202 5.45 7.653 7.653 0 0 0 2.253 5.312 7.375 7.375 0 0 0 5.275 2.148 7.326 7.326 0 0 0 2.893-.571 7.439 7.439 0 0 0 2.449-1.67 7.598 7.598 0 0 0 1.62-2.508c.371-.937.554-1.94.54-2.95a7.888 7.888 0 0 0-2.28-5.313A7.607 7.607 0 0 0 7.507.022zm-.037 14.35a6.604 6.604 0 0 1-4.594-1.98A6.85 6.85 0 0 1 .918 7.72a6.747 6.747 0 0 1 1.944-4.665A6.503 6.503 0 0 1 7.46 1.118a6.469 6.469 0 0 1 2.543.486 6.565 6.565 0 0 1 2.162 1.447 6.705 6.705 0 0 1 1.446 2.184c.335.819.508 1.697.507 2.584a6.859 6.859 0 0 1-2.03 4.64 6.613 6.613 0 0 1-4.618 1.913z" fill="#000"/>
</svg>
